<?xml version="1.0" encoding="UTF-8"?><svg xmlns="http://www.w3.org/2000/svg" xmlns:xlink="http://www.w3.org/1999/xlink" fill-opacity="1" color-rendering="auto" color-interpolation="auto" text-rendering="auto" stroke="black" stroke-linecap="square" width="646" stroke-miterlimit="10" shape-rendering="auto" stroke-opacity="1" fill="black" stroke-dasharray="none" font-weight="normal" stroke-width="1" height="705" font-family="'Dialog'" font-style="normal" stroke-linejoin="miter" font-size="12px" stroke-dashoffset="0" image-rendering="auto">
  <!--Generated by ySVG 2.5-->
  <defs id="genericDefs"/>
  <g>
    <defs id="defs1">
      <clipPath clipPathUnits="userSpaceOnUse" id="clipPath1">
        <path d="M0 0 L646 0 L646 705 L0 705 L0 0 Z"/>
      </clipPath>
      <clipPath clipPathUnits="userSpaceOnUse" id="clipPath2">
        <path d="M-15 -15 L631 -15 L631 690 L-15 690 L-15 -15 Z"/>
      </clipPath>
    </defs>
    <g fill="white" text-rendering="geometricPrecision" shape-rendering="geometricPrecision" transform="translate(15,15)" stroke="white">
      <rect x="-15" width="646" height="705" y="-15" clip-path="url(#clipPath2)" stroke="none"/>
    </g>
    <g fill="rgb(255,204,0)" text-rendering="geometricPrecision" shape-rendering="geometricPrecision" transform="matrix(1,0,0,1,15,15)" stroke="rgb(255,204,0)">
      <rect x="219.3493" width="76.0164" height="30" y="465" clip-path="url(#clipPath2)" stroke="none"/>
    </g>
    <g text-rendering="geometricPrecision" stroke-miterlimit="1.45" shape-rendering="geometricPrecision" transform="matrix(1,0,0,1,15,15)" stroke-linecap="butt">
      <rect fill="none" x="219.3493" width="76.0164" height="30" y="465" clip-path="url(#clipPath2)"/>
      <text x="226.3493" xml:space="preserve" y="482.748" clip-path="url(#clipPath2)" font-family="sans-serif" stroke="none">KanDiscard</text>
    </g>
    <g fill="rgb(255,204,0)" text-rendering="geometricPrecision" shape-rendering="geometricPrecision" transform="matrix(1,0,0,1,15,15)" stroke="rgb(255,204,0)">
      <rect x="239.3535" width="36.0081" height="30" y="525" clip-path="url(#clipPath2)" stroke="none"/>
    </g>
    <g text-rendering="geometricPrecision" stroke-miterlimit="1.45" shape-rendering="geometricPrecision" transform="matrix(1,0,0,1,15,15)" stroke-linecap="butt">
      <rect fill="none" x="239.3535" width="36.0081" height="30" y="525" clip-path="url(#clipPath2)"/>
      <text x="246.3535" xml:space="preserve" y="542.748" clip-path="url(#clipPath2)" font-family="sans-serif" stroke="none">Ron</text>
    </g>
    <g fill="rgb(255,204,0)" text-rendering="geometricPrecision" shape-rendering="geometricPrecision" transform="matrix(1,0,0,1,15,15)" stroke="rgb(255,204,0)">
      <rect x="219.0133" width="76.6884" height="30" y="180" clip-path="url(#clipPath2)" stroke="none"/>
    </g>
    <g text-rendering="geometricPrecision" stroke-miterlimit="1.45" shape-rendering="geometricPrecision" transform="matrix(1,0,0,1,15,15)" stroke-linecap="butt">
      <rect fill="none" x="219.0133" width="76.6884" height="30" y="180" clip-path="url(#clipPath2)"/>
      <text x="226.0133" xml:space="preserve" y="197.748" clip-path="url(#clipPath2)" font-family="sans-serif" stroke="none">PlayerHand</text>
    </g>
    <g fill="rgb(255,204,0)" text-rendering="geometricPrecision" shape-rendering="geometricPrecision" transform="matrix(1,0,0,1,15,15)" stroke="rgb(255,204,0)">
      <rect x="236.3594" width="41.9962" height="30" y="120" clip-path="url(#clipPath2)" stroke="none"/>
    </g>
    <g text-rendering="geometricPrecision" stroke-miterlimit="1.45" shape-rendering="geometricPrecision" transform="matrix(1,0,0,1,15,15)" stroke-linecap="butt">
      <rect fill="none" x="236.3594" width="41.9962" height="30" y="120" clip-path="url(#clipPath2)"/>
      <text x="243.3594" xml:space="preserve" y="137.748" clip-path="url(#clipPath2)" font-family="sans-serif" stroke="none">Draw</text>
    </g>
    <g fill="rgb(255,204,0)" text-rendering="geometricPrecision" shape-rendering="geometricPrecision" transform="matrix(1,0,0,1,15,15)" stroke="rgb(255,204,0)">
      <rect x="230.0234" width="54.6683" height="30" y="330" clip-path="url(#clipPath2)" stroke="none"/>
    </g>
    <g text-rendering="geometricPrecision" stroke-miterlimit="1.45" shape-rendering="geometricPrecision" transform="matrix(1,0,0,1,15,15)" stroke-linecap="butt">
      <rect fill="none" x="230.0234" width="54.6683" height="30" y="330" clip-path="url(#clipPath2)"/>
      <text x="237.0234" xml:space="preserve" y="347.748" clip-path="url(#clipPath2)" font-family="sans-serif" stroke="none">Discard</text>
    </g>
    <g fill="rgb(255,204,0)" text-rendering="geometricPrecision" shape-rendering="geometricPrecision" transform="matrix(1,0,0,1,15,15)" stroke="rgb(255,204,0)">
      <rect x="220.0093" width="74.6964" height="30" y="60" clip-path="url(#clipPath2)" stroke="none"/>
    </g>
    <g text-rendering="geometricPrecision" stroke-miterlimit="1.45" shape-rendering="geometricPrecision" transform="matrix(1,0,0,1,15,15)" stroke-linecap="butt">
      <rect fill="none" x="220.0093" width="74.6964" height="30" y="60" clip-path="url(#clipPath2)"/>
      <text x="227.0093" xml:space="preserve" y="77.748" clip-path="url(#clipPath2)" font-family="sans-serif" stroke="none">RoundStart</text>
    </g>
    <g fill="rgb(255,204,0)" text-rendering="geometricPrecision" shape-rendering="geometricPrecision" transform="matrix(1,0,0,1,15,15)" stroke="rgb(255,204,0)">
      <rect x="221.3473" width="72.0204" height="30" y="0" clip-path="url(#clipPath2)" stroke="none"/>
    </g>
    <g text-rendering="geometricPrecision" stroke-miterlimit="1.45" shape-rendering="geometricPrecision" transform="matrix(1,0,0,1,15,15)" stroke-linecap="butt">
      <rect fill="none" x="221.3473" width="72.0204" height="30" y="0" clip-path="url(#clipPath2)"/>
      <text x="228.3473" xml:space="preserve" y="17.748" clip-path="url(#clipPath2)" font-family="sans-serif" stroke="none">GameStart</text>
    </g>
    <g fill="rgb(255,204,0)" text-rendering="geometricPrecision" shape-rendering="geometricPrecision" transform="matrix(1,0,0,1,15,15)" stroke="rgb(255,204,0)">
      <rect x="545.0891" width="70.7004" height="30" y="585" clip-path="url(#clipPath2)" stroke="none"/>
    </g>
    <g text-rendering="geometricPrecision" stroke-miterlimit="1.45" shape-rendering="geometricPrecision" transform="matrix(1,0,0,1,15,15)" stroke-linecap="butt">
      <rect fill="none" x="545.0891" width="70.7004" height="30" y="585" clip-path="url(#clipPath2)"/>
      <text x="552.0891" xml:space="preserve" y="602.748" clip-path="url(#clipPath2)" font-family="sans-serif" stroke="none">RoundEnd</text>
    </g>
    <g fill="rgb(255,204,0)" text-rendering="geometricPrecision" shape-rendering="geometricPrecision" transform="matrix(1,0,0,1,15,15)" stroke="rgb(255,204,0)">
      <rect x="546.4271" width="68.0244" height="30" y="645" clip-path="url(#clipPath2)" stroke="none"/>
    </g>
    <g text-rendering="geometricPrecision" stroke-miterlimit="1.45" shape-rendering="geometricPrecision" transform="matrix(1,0,0,1,15,15)" stroke-linecap="butt">
      <rect fill="none" x="546.4271" width="68.0244" height="30" y="645" clip-path="url(#clipPath2)"/>
      <text x="553.4271" xml:space="preserve" y="662.748" clip-path="url(#clipPath2)" font-family="sans-serif" stroke="none">GameEnd</text>
    </g>
    <g fill="rgb(255,204,0)" text-rendering="geometricPrecision" shape-rendering="geometricPrecision" transform="matrix(1,0,0,1,15,15)" stroke="rgb(255,204,0)">
      <rect x="555.1032" width="50.6722" height="30" y="255" clip-path="url(#clipPath2)" stroke="none"/>
    </g>
    <g text-rendering="geometricPrecision" stroke-miterlimit="1.45" shape-rendering="geometricPrecision" transform="matrix(1,0,0,1,15,15)" stroke-linecap="butt">
      <rect fill="none" x="555.1032" width="50.6722" height="30" y="255" clip-path="url(#clipPath2)"/>
      <text x="562.1031" xml:space="preserve" y="272.748" clip-path="url(#clipPath2)" font-family="sans-serif" stroke="none">Tsumo</text>
    </g>
    <g fill="rgb(255,204,0)" text-rendering="geometricPrecision" shape-rendering="geometricPrecision" transform="matrix(1,0,0,1,15,15)" stroke="rgb(255,204,0)">
      <rect x="492.083" width="57.3563" height="30" y="405" clip-path="url(#clipPath2)" stroke="none"/>
    </g>
    <g text-rendering="geometricPrecision" stroke-miterlimit="1.45" shape-rendering="geometricPrecision" transform="matrix(1,0,0,1,15,15)" stroke-linecap="butt">
      <rect fill="none" x="492.083" width="57.3563" height="30" y="405" clip-path="url(#clipPath2)"/>
      <text x="499.0829" xml:space="preserve" y="422.748" clip-path="url(#clipPath2)" font-family="sans-serif" stroke="none">Exhaust</text>
    </g>
    <g fill="rgb(255,204,0)" text-rendering="geometricPrecision" shape-rendering="geometricPrecision" transform="matrix(1,0,0,1,15,15)" stroke="rgb(255,204,0)">
      <rect x="235.6934" width="43.3282" height="30" y="255" clip-path="url(#clipPath2)" stroke="none"/>
    </g>
    <g text-rendering="geometricPrecision" stroke-miterlimit="1.45" shape-rendering="geometricPrecision" transform="matrix(1,0,0,1,15,15)" stroke-linecap="butt">
      <rect fill="none" x="235.6934" width="43.3282" height="30" y="255" clip-path="url(#clipPath2)"/>
      <text x="242.6934" xml:space="preserve" y="272.748" clip-path="url(#clipPath2)" font-family="sans-serif" stroke="none">Riichi</text>
    </g>
    <g fill="rgb(255,204,0)" text-rendering="geometricPrecision" shape-rendering="geometricPrecision" transform="matrix(1,0,0,1,15,15)" stroke="rgb(255,204,0)">
      <rect x="77.0001" width="35.3481" height="30" y="405" clip-path="url(#clipPath2)" stroke="none"/>
    </g>
    <g text-rendering="geometricPrecision" stroke-miterlimit="1.45" shape-rendering="geometricPrecision" transform="matrix(1,0,0,1,15,15)" stroke-linecap="butt">
      <rect fill="none" x="77.0001" width="35.3481" height="30" y="405" clip-path="url(#clipPath2)"/>
      <text x="84.0001" xml:space="preserve" y="422.748" clip-path="url(#clipPath2)" font-family="sans-serif" stroke="none">Pon</text>
    </g>
    <g fill="rgb(255,204,0)" text-rendering="geometricPrecision" shape-rendering="geometricPrecision" transform="matrix(1,0,0,1,15,15)" stroke="rgb(255,204,0)">
      <rect x="142.3487" width="32.0001" height="30" y="405" clip-path="url(#clipPath2)" stroke="none"/>
    </g>
    <g text-rendering="geometricPrecision" stroke-miterlimit="1.45" shape-rendering="geometricPrecision" transform="matrix(1,0,0,1,15,15)" stroke-linecap="butt">
      <rect fill="none" x="142.3487" width="32.0001" height="30" y="405" clip-path="url(#clipPath2)"/>
      <text x="149.3488" xml:space="preserve" y="422.748" clip-path="url(#clipPath2)" font-family="sans-serif" stroke="none">Chi</text>
    </g>
    <g fill="rgb(255,204,0)" text-rendering="geometricPrecision" shape-rendering="geometricPrecision" transform="matrix(1,0,0,1,15,15)" stroke="rgb(255,204,0)">
      <rect x="89.6565" width="84.6925" height="30" y="525" clip-path="url(#clipPath2)" stroke="none"/>
    </g>
    <g text-rendering="geometricPrecision" stroke-miterlimit="1.45" shape-rendering="geometricPrecision" transform="matrix(1,0,0,1,15,15)" stroke-linecap="butt">
      <rect fill="none" x="89.6565" width="84.6925" height="30" y="525" clip-path="url(#clipPath2)"/>
      <text x="96.6565" xml:space="preserve" y="542.748" clip-path="url(#clipPath2)" font-family="sans-serif" stroke="none">Replacement</text>
    </g>
    <g fill="rgb(255,204,0)" text-rendering="geometricPrecision" shape-rendering="geometricPrecision" transform="matrix(1,0,0,1,15,15)" stroke="rgb(255,204,0)">
      <rect x="431.7307" width="90.7045" height="30" y="255" clip-path="url(#clipPath2)" stroke="none"/>
    </g>
    <g text-rendering="geometricPrecision" stroke-miterlimit="1.45" shape-rendering="geometricPrecision" transform="matrix(1,0,0,1,15,15)" stroke-linecap="butt">
      <rect fill="none" x="431.7307" width="90.7045" height="30" y="255" clip-path="url(#clipPath2)"/>
      <text x="438.7307" xml:space="preserve" y="272.748" clip-path="url(#clipPath2)" font-family="sans-serif" stroke="none">ConvertedKan</text>
    </g>
    <g fill="rgb(255,204,0)" text-rendering="geometricPrecision" shape-rendering="geometricPrecision" transform="matrix(1,0,0,1,15,15)" stroke="rgb(255,204,0)">
      <rect x="309.0219" width="92.7085" height="30" y="255" clip-path="url(#clipPath2)" stroke="none"/>
    </g>
    <g text-rendering="geometricPrecision" stroke-miterlimit="1.45" shape-rendering="geometricPrecision" transform="matrix(1,0,0,1,15,15)" stroke-linecap="butt">
      <rect fill="none" x="309.0219" width="92.7085" height="30" y="255" clip-path="url(#clipPath2)"/>
      <text x="316.0219" xml:space="preserve" y="272.748" clip-path="url(#clipPath2)" font-family="sans-serif" stroke="none">ConcealedKan</text>
    </g>
    <g fill="rgb(255,204,0)" text-rendering="geometricPrecision" shape-rendering="geometricPrecision" transform="matrix(1,0,0,1,15,15)" stroke="rgb(255,204,0)">
      <rect x="239.6835" width="35.3481" height="30" y="405" clip-path="url(#clipPath2)" stroke="none"/>
    </g>
    <g text-rendering="geometricPrecision" stroke-miterlimit="1.45" shape-rendering="geometricPrecision" transform="matrix(1,0,0,1,15,15)" stroke-linecap="butt">
      <rect fill="none" x="239.6835" width="35.3481" height="30" y="405" clip-path="url(#clipPath2)"/>
      <text x="246.6835" xml:space="preserve" y="422.748" clip-path="url(#clipPath2)" font-family="sans-serif" stroke="none">Kan</text>
      <path fill="none" d="M257.3575 495 L257.3575 516.9707" clip-path="url(#clipPath2)"/>
      <path d="M257.3575 524.9707 L262.3575 512.9707 L257.3575 515.9707 L252.3575 512.9707 Z" clip-path="url(#clipPath2)" stroke="none"/>
      <path fill="none" d="M257.3575 150 L257.3575 171.9707" clip-path="url(#clipPath2)"/>
      <path d="M257.3575 179.9707 L262.3575 167.9707 L257.3575 170.9707 L252.3575 167.9707 Z" clip-path="url(#clipPath2)" stroke="none"/>
      <path fill="none" d="M242.0199 210 L242.0199 225 L189.3492 225 L189.3492 300 L246.4239 300 L246.4239 321.9707" clip-path="url(#clipPath2)"/>
      <path d="M246.4239 329.9707 L251.4239 317.9707 L246.4239 320.9707 L241.4239 317.9707 Z" clip-path="url(#clipPath2)" stroke="none"/>
      <path fill="none" d="M246.4239 360 L246.4239 390 L189.3492 390 L189.3492 540 L231.3046 540" clip-path="url(#clipPath2)"/>
      <path d="M239.3046 540 L227.3046 535 L230.3046 540 L227.3046 545 Z" clip-path="url(#clipPath2)" stroke="none"/>
      <path fill="none" d="M235.4902 329.9707 L235.4902 315 L143.3488 315 L143.3488 135 L228.314 135" clip-path="url(#clipPath2)"/>
      <path d="M236.314 135 L224.314 130 L227.314 135 L224.314 140 Z" clip-path="url(#clipPath2)" stroke="none"/>
      <path fill="none" d="M257.3575 90 L257.3575 111.9707" clip-path="url(#clipPath2)"/>
      <path d="M257.3575 119.9707 L262.3575 107.9707 L257.3575 110.9707 L252.3575 107.9707 Z" clip-path="url(#clipPath2)" stroke="none"/>
      <path fill="none" d="M257.3575 30 L257.3575 51.9707" clip-path="url(#clipPath2)"/>
      <path d="M257.3575 59.9707 L262.3575 47.9707 L257.3575 50.9707 L252.3575 47.9707 Z" clip-path="url(#clipPath2)" stroke="none"/>
      <path fill="none" d="M275.3616 540 L580.4393 540 L580.4393 576.9561" clip-path="url(#clipPath2)"/>
      <path d="M580.4393 584.9561 L585.4393 572.9561 L580.4393 575.9561 L575.4393 572.9561 Z" clip-path="url(#clipPath2)" stroke="none"/>
      <path fill="none" d="M545.0558 600 L0 600 L0 75 L211.9825 75" clip-path="url(#clipPath2)"/>
      <path d="M219.9825 75 L207.9825 70 L210.9825 75 L207.9825 80 Z" clip-path="url(#clipPath2)" stroke="none"/>
      <path fill="none" d="M580.4393 615 L580.4393 636.9707" clip-path="url(#clipPath2)"/>
      <path d="M580.4393 644.9707 L585.4393 632.9707 L580.4393 635.9707 L575.4393 632.9707 Z" clip-path="url(#clipPath2)" stroke="none"/>
      <path fill="none" d="M295.7018 195 L580.4393 195 L580.4393 246.9707" clip-path="url(#clipPath2)"/>
      <path d="M580.4393 254.9707 L585.4393 242.9707 L580.4393 245.9707 L575.4393 242.9707 Z" clip-path="url(#clipPath2)" stroke="none"/>
      <path fill="none" d="M580.4393 285 L580.4393 576.9634" clip-path="url(#clipPath2)"/>
      <path d="M580.4393 584.9634 L585.4393 572.9634 L580.4393 575.9634 L575.4393 572.9634 Z" clip-path="url(#clipPath2)" stroke="none"/>
      <path fill="none" d="M284.6917 345 L340.3762 345 L340.3762 360 L520.7611 360 L520.7611 396.9561" clip-path="url(#clipPath2)"/>
      <path d="M520.7611 404.9561 L525.7611 392.9561 L520.7611 395.9561 L515.7611 392.9561 Z" clip-path="url(#clipPath2)" stroke="none"/>
      <path fill="none" d="M549.4393 420 L580.4393 420 L580.4393 576.9597" clip-path="url(#clipPath2)"/>
      <path d="M580.4393 584.9597 L585.4393 572.9597 L580.4393 575.9597 L575.4393 572.9597 Z" clip-path="url(#clipPath2)" stroke="none"/>
      <path fill="none" d="M257.3575 210 L257.3575 246.9561" clip-path="url(#clipPath2)"/>
      <path d="M257.3575 254.9561 L262.3575 242.9561 L257.3575 245.9561 L252.3575 242.9561 Z" clip-path="url(#clipPath2)" stroke="none"/>
      <path fill="none" d="M257.3575 285 L257.3575 321.9561" clip-path="url(#clipPath2)"/>
      <path d="M257.3575 329.9561 L262.3575 317.9561 L257.3575 320.9561 L252.3575 317.9561 Z" clip-path="url(#clipPath2)" stroke="none"/>
      <path fill="none" d="M229.9904 345 L94.6742 345 L94.6742 396.9707" clip-path="url(#clipPath2)"/>
      <path d="M94.6742 404.9707 L99.6742 392.9707 L94.6742 395.9707 L89.6742 392.9707 Z" clip-path="url(#clipPath2)" stroke="none"/>
      <path fill="none" d="M76.9708 420 L62 420 L62 421 L16 420 L16 210 L158.3488 210 L158.3488 165 L257.3575 165 L257.3575 171.9707" clip-path="url(#clipPath2)"/>
      <path d="M257.3575 179.9707 L262.3575 167.9707 L257.3575 170.9707 L252.3575 167.9707 Z" clip-path="url(#clipPath2)" stroke="none"/>
      <path fill="none" d="M235.4902 360 L235.4902 375 L158.3488 375 L158.3488 396.9707" clip-path="url(#clipPath2)"/>
      <path d="M158.3488 404.9707 L163.3488 392.9707 L158.3488 395.9707 L153.3488 392.9707 Z" clip-path="url(#clipPath2)" stroke="none"/>
      <path fill="none" d="M142.3195 420 L127.3484 420 L127.3484 450 L32 450 L32 421 L16 420 L16 210 L158.3488 210 L158.3488 165 L257.3575 165 L257.3575 171.9707" clip-path="url(#clipPath2)"/>
      <path d="M257.3575 179.9707 L262.3575 167.9707 L257.3575 170.9707 L252.3575 167.9707 Z" clip-path="url(#clipPath2)" stroke="none"/>
      <path fill="none" d="M219.32 480 L204.3492 480 L204.3492 495 L153.1759 495 L153.1759 516.9707" clip-path="url(#clipPath2)"/>
      <path d="M153.1759 524.9707 L158.1759 512.9707 L153.1759 515.9707 L148.1759 512.9707 Z" clip-path="url(#clipPath2)" stroke="none"/>
      <path fill="none" d="M110.8297 524.9717 L110.8297 496 L16 496 L16 210 L158.3488 210 L158.3488 165 L257.3575 165 L257.3575 171.9707" clip-path="url(#clipPath2)"/>
      <path d="M257.3575 179.9707 L262.3575 167.9707 L257.3575 170.9707 L252.3575 167.9707 Z" clip-path="url(#clipPath2)" stroke="none"/>
      <path fill="none" d="M288.0329 210 L288.0329 225 L477.0829 225 L477.0829 246.9707" clip-path="url(#clipPath2)"/>
      <path d="M477.0829 254.9707 L482.0829 242.9707 L477.0829 245.9707 L472.0829 242.9707 Z" clip-path="url(#clipPath2)" stroke="none"/>
      <path fill="none" d="M477.0829 285 L477.0829 450 L257.3575 450 L257.3575 456.9707" clip-path="url(#clipPath2)"/>
      <path d="M257.3575 464.9707 L262.3575 452.9707 L257.3575 455.9707 L252.3575 452.9707 Z" clip-path="url(#clipPath2)" stroke="none"/>
      <path fill="none" d="M272.6952 210 L272.6952 240 L355.3762 240 L355.3762 246.9707" clip-path="url(#clipPath2)"/>
      <path d="M355.3762 254.9707 L360.3762 242.9707 L355.3762 245.9707 L350.3762 242.9707 Z" clip-path="url(#clipPath2)" stroke="none"/>
      <path fill="none" d="M355.3762 285 L355.3762 450 L257.3575 450 L257.3575 456.9707" clip-path="url(#clipPath2)"/>
      <path d="M257.3575 464.9707 L262.3575 452.9707 L257.3575 455.9707 L252.3575 452.9707 Z" clip-path="url(#clipPath2)" stroke="none"/>
      <path fill="none" d="M257.3575 360 L257.3575 396.9561" clip-path="url(#clipPath2)"/>
      <path d="M257.3575 404.9561 L262.3575 392.9561 L257.3575 395.9561 L252.3575 392.9561 Z" clip-path="url(#clipPath2)" stroke="none"/>
      <path fill="none" d="M257.3575 435 L257.3575 456.9707" clip-path="url(#clipPath2)"/>
      <path d="M257.3575 464.9707 L262.3575 452.9707 L257.3575 455.9707 L252.3575 452.9707 Z" clip-path="url(#clipPath2)" stroke="none"/>
    </g>
  </g>
</svg>
