<?xml version="1.0" encoding="UTF-8"?><svg xmlns="http://www.w3.org/2000/svg" xmlns:xlink="http://www.w3.org/1999/xlink" fill-opacity="1" color-rendering="auto" color-interpolation="auto" text-rendering="auto" stroke="black" stroke-linecap="square" width="497" stroke-miterlimit="10" shape-rendering="auto" stroke-opacity="1" fill="black" stroke-dasharray="none" font-weight="normal" stroke-width="1" height="760" font-family="'Dialog'" font-style="normal" stroke-linejoin="miter" font-size="12px" stroke-dashoffset="0" image-rendering="auto">
  <!--Generated by ySVG 2.5-->
  <defs id="genericDefs"/>
  <g>
    <defs id="defs1">
      <clipPath clipPathUnits="userSpaceOnUse" id="clipPath1">
        <path d="M0 0 L497 0 L497 760 L0 760 L0 0 Z"/>
      </clipPath>
      <clipPath clipPathUnits="userSpaceOnUse" id="clipPath2">
        <path d="M-10 -15 L487 -15 L487 745 L-10 745 L-10 -15 Z"/>
      </clipPath>
    </defs>
    <g fill="white" text-rendering="geometricPrecision" shape-rendering="geometricPrecision" transform="translate(10,15)" stroke="white">
      <rect x="-10" width="497" height="760" y="-15" clip-path="url(#clipPath2)" stroke="none"/>
    </g>
    <g fill="rgb(255,204,0)" text-rendering="geometricPrecision" shape-rendering="geometricPrecision" transform="matrix(1,0,0,1,10,15)" stroke="rgb(255,204,0)">
      <rect x="164.8892" width="72.0195" height="30" y="0" clip-path="url(#clipPath2)" stroke="none"/>
    </g>
    <g text-rendering="geometricPrecision" stroke-miterlimit="1.45" shape-rendering="geometricPrecision" transform="matrix(1,0,0,1,10,15)" stroke-linecap="butt">
      <rect fill="none" x="164.8892" width="72.0195" height="30" y="0" clip-path="url(#clipPath2)"/>
      <text x="171.8892" xml:space="preserve" y="19.1602" clip-path="url(#clipPath2)" font-family="sans-serif" stroke="none">GameStart</text>
    </g>
    <g fill="rgb(255,204,0)" text-rendering="geometricPrecision" shape-rendering="geometricPrecision" transform="matrix(1,0,0,1,10,15)" stroke="rgb(255,204,0)">
      <rect x="21.3421" width="68.0293" height="30" y="700" clip-path="url(#clipPath2)" stroke="none"/>
    </g>
    <g text-rendering="geometricPrecision" stroke-miterlimit="1.45" shape-rendering="geometricPrecision" transform="matrix(1,0,0,1,10,15)" stroke-linecap="butt">
      <rect fill="none" x="21.3421" width="68.0293" height="30" y="700" clip-path="url(#clipPath2)"/>
      <text x="28.3421" xml:space="preserve" y="719.1602" clip-path="url(#clipPath2)" font-family="sans-serif" stroke="none">GameEnd</text>
    </g>
    <g fill="rgb(255,204,0)" text-rendering="geometricPrecision" shape-rendering="geometricPrecision" transform="matrix(1,0,0,1,10,15)" stroke="rgb(255,204,0)">
      <rect x="220.6393" width="35.3516" height="30" y="451" clip-path="url(#clipPath2)" stroke="none"/>
    </g>
    <g text-rendering="geometricPrecision" stroke-miterlimit="1.45" shape-rendering="geometricPrecision" transform="matrix(1,0,0,1,10,15)" stroke-linecap="butt">
      <rect fill="none" x="220.6393" width="35.3516" height="30" y="451" clip-path="url(#clipPath2)"/>
      <text x="227.6393" xml:space="preserve" y="470.1602" clip-path="url(#clipPath2)" font-family="sans-serif" stroke="none">Kan</text>
    </g>
    <g fill="rgb(255,204,0)" text-rendering="geometricPrecision" shape-rendering="geometricPrecision" transform="matrix(1,0,0,1,10,15)" stroke="rgb(255,204,0)">
      <rect x="167.1256" width="76.0273" height="30" y="512" clip-path="url(#clipPath2)" stroke="none"/>
    </g>
    <g text-rendering="geometricPrecision" stroke-miterlimit="1.45" shape-rendering="geometricPrecision" transform="matrix(1,0,0,1,10,15)" stroke-linecap="butt">
      <rect fill="none" x="167.1256" width="76.0273" height="30" y="512" clip-path="url(#clipPath2)"/>
      <text x="174.1256" xml:space="preserve" y="531.1602" clip-path="url(#clipPath2)" font-family="sans-serif" stroke="none">KanDiscard</text>
    </g>
    <g fill="rgb(255,204,0)" text-rendering="geometricPrecision" shape-rendering="geometricPrecision" transform="matrix(1,0,0,1,10,15)" stroke="rgb(255,204,0)">
      <rect x="223.572" width="92.7266" height="30" y="265" clip-path="url(#clipPath2)" stroke="none"/>
    </g>
    <g text-rendering="geometricPrecision" stroke-miterlimit="1.45" shape-rendering="geometricPrecision" transform="matrix(1,0,0,1,10,15)" stroke-linecap="butt">
      <rect fill="none" x="223.572" width="92.7266" height="30" y="265" clip-path="url(#clipPath2)"/>
      <text x="230.572" xml:space="preserve" y="284.1602" clip-path="url(#clipPath2)" font-family="sans-serif" stroke="none">ConcealedKan</text>
    </g>
    <g fill="rgb(255,204,0)" text-rendering="geometricPrecision" shape-rendering="geometricPrecision" transform="matrix(1,0,0,1,10,15)" stroke="rgb(255,204,0)">
      <rect x="102.8551" width="90.7168" height="30" y="265" clip-path="url(#clipPath2)" stroke="none"/>
    </g>
    <g text-rendering="geometricPrecision" stroke-miterlimit="1.45" shape-rendering="geometricPrecision" transform="matrix(1,0,0,1,10,15)" stroke-linecap="butt">
      <rect fill="none" x="102.8551" width="90.7168" height="30" y="265" clip-path="url(#clipPath2)"/>
      <text x="109.8551" xml:space="preserve" y="284.1602" clip-path="url(#clipPath2)" font-family="sans-serif" stroke="none">ConvertedKan</text>
    </g>
    <g fill="rgb(255,204,0)" text-rendering="geometricPrecision" shape-rendering="geometricPrecision" transform="matrix(1,0,0,1,10,15)" stroke="rgb(255,204,0)">
      <rect x="66.1784" width="84.7051" height="30" y="573" clip-path="url(#clipPath2)" stroke="none"/>
    </g>
    <g text-rendering="geometricPrecision" stroke-miterlimit="1.45" shape-rendering="geometricPrecision" transform="matrix(1,0,0,1,10,15)" stroke-linecap="butt">
      <rect fill="none" x="66.1784" width="84.7051" height="30" y="573" clip-path="url(#clipPath2)"/>
      <text x="73.1784" xml:space="preserve" y="592.1602" clip-path="url(#clipPath2)" font-family="sans-serif" stroke="none">Replacement</text>
    </g>
    <g fill="rgb(255,204,0)" text-rendering="geometricPrecision" shape-rendering="geometricPrecision" transform="matrix(1,0,0,1,10,15)" stroke="rgb(255,204,0)">
      <rect x="215.1428" width="36.0137" height="30" y="573" clip-path="url(#clipPath2)" stroke="none"/>
    </g>
    <g text-rendering="geometricPrecision" stroke-miterlimit="1.45" shape-rendering="geometricPrecision" transform="matrix(1,0,0,1,10,15)" stroke-linecap="butt">
      <rect fill="none" x="215.1428" width="36.0137" height="30" y="573" clip-path="url(#clipPath2)"/>
      <text x="222.1428" xml:space="preserve" y="592.1602" clip-path="url(#clipPath2)" font-family="sans-serif" stroke="none">Ron</text>
    </g>
    <g fill="rgb(255,204,0)" text-rendering="geometricPrecision" shape-rendering="geometricPrecision" transform="matrix(1,0,0,1,10,15)" stroke="rgb(255,204,0)">
      <rect x="198.5738" width="42.002" height="30" y="111" clip-path="url(#clipPath2)" stroke="none"/>
    </g>
    <g text-rendering="geometricPrecision" stroke-miterlimit="1.45" shape-rendering="geometricPrecision" transform="matrix(1,0,0,1,10,15)" stroke-linecap="butt">
      <rect fill="none" x="198.5738" width="42.002" height="30" y="111" clip-path="url(#clipPath2)"/>
      <text x="205.5738" xml:space="preserve" y="130.1602" clip-path="url(#clipPath2)" font-family="sans-serif" stroke="none">Draw</text>
    </g>
    <g fill="rgb(255,204,0)" text-rendering="geometricPrecision" shape-rendering="geometricPrecision" transform="matrix(1,0,0,1,10,15)" stroke="rgb(255,204,0)">
      <rect x="170.7238" width="76.7012" height="30" y="172" clip-path="url(#clipPath2)" stroke="none"/>
    </g>
    <g text-rendering="geometricPrecision" stroke-miterlimit="1.45" shape-rendering="geometricPrecision" transform="matrix(1,0,0,1,10,15)" stroke-linecap="butt">
      <rect fill="none" x="170.7238" width="76.7012" height="30" y="172" clip-path="url(#clipPath2)"/>
      <text x="177.7238" xml:space="preserve" y="191.1602" clip-path="url(#clipPath2)" font-family="sans-serif" stroke="none">PlayerHand</text>
    </g>
    <g fill="rgb(255,204,0)" text-rendering="geometricPrecision" shape-rendering="geometricPrecision" transform="matrix(1,0,0,1,10,15)" stroke="rgb(255,204,0)">
      <rect x="348.9972" width="35.3516" height="30" y="451" clip-path="url(#clipPath2)" stroke="none"/>
    </g>
    <g text-rendering="geometricPrecision" stroke-miterlimit="1.45" shape-rendering="geometricPrecision" transform="matrix(1,0,0,1,10,15)" stroke-linecap="butt">
      <rect fill="none" x="348.9972" width="35.3516" height="30" y="451" clip-path="url(#clipPath2)"/>
      <text x="355.9972" xml:space="preserve" y="470.1602" clip-path="url(#clipPath2)" font-family="sans-serif" stroke="none">Pon</text>
    </g>
    <g fill="rgb(255,204,0)" text-rendering="geometricPrecision" shape-rendering="geometricPrecision" transform="matrix(1,0,0,1,10,15)" stroke="rgb(255,204,0)">
      <rect x="322.6863" width="54.6758" height="30" y="342" clip-path="url(#clipPath2)" stroke="none"/>
    </g>
    <g text-rendering="geometricPrecision" stroke-miterlimit="1.45" shape-rendering="geometricPrecision" transform="matrix(1,0,0,1,10,15)" stroke-linecap="butt">
      <rect fill="none" x="322.6863" width="54.6758" height="30" y="342" clip-path="url(#clipPath2)"/>
      <text x="329.6863" xml:space="preserve" y="361.1602" clip-path="url(#clipPath2)" font-family="sans-serif" stroke="none">Discard</text>
    </g>
    <g fill="rgb(255,204,0)" text-rendering="geometricPrecision" shape-rendering="geometricPrecision" transform="matrix(1,0,0,1,10,15)" stroke="rgb(255,204,0)">
      <rect x="285.9911" width="32.0059" height="30" y="451" clip-path="url(#clipPath2)" stroke="none"/>
    </g>
    <g text-rendering="geometricPrecision" stroke-miterlimit="1.45" shape-rendering="geometricPrecision" transform="matrix(1,0,0,1,10,15)" stroke-linecap="butt">
      <rect fill="none" x="285.9911" width="32.0059" height="30" y="451" clip-path="url(#clipPath2)"/>
      <text x="292.9911" xml:space="preserve" y="470.1602" clip-path="url(#clipPath2)" font-family="sans-serif" stroke="none">Chi</text>
    </g>
    <g fill="rgb(255,204,0)" text-rendering="geometricPrecision" shape-rendering="geometricPrecision" transform="matrix(1,0,0,1,10,15)" stroke="rgb(255,204,0)">
      <rect x="347.2989" width="43.3379" height="30" y="265" clip-path="url(#clipPath2)" stroke="none"/>
    </g>
    <g text-rendering="geometricPrecision" stroke-miterlimit="1.45" shape-rendering="geometricPrecision" transform="matrix(1,0,0,1,10,15)" stroke-linecap="butt">
      <rect fill="none" x="347.2989" width="43.3379" height="30" y="265" clip-path="url(#clipPath2)"/>
      <text x="354.2989" xml:space="preserve" y="284.1602" clip-path="url(#clipPath2)" font-family="sans-serif" stroke="none">Riichi</text>
    </g>
    <g fill="rgb(255,204,0)" text-rendering="geometricPrecision" shape-rendering="geometricPrecision" transform="matrix(1,0,0,1,10,15)" stroke="rgb(255,204,0)">
      <rect x="414.3489" width="57.3594" height="30" y="451" clip-path="url(#clipPath2)" stroke="none"/>
    </g>
    <g text-rendering="geometricPrecision" stroke-miterlimit="1.45" shape-rendering="geometricPrecision" transform="matrix(1,0,0,1,10,15)" stroke-linecap="butt">
      <rect fill="none" x="414.3489" width="57.3594" height="30" y="451" clip-path="url(#clipPath2)"/>
      <text x="421.3489" xml:space="preserve" y="470.1602" clip-path="url(#clipPath2)" font-family="sans-serif" stroke="none">Exhaust</text>
    </g>
    <g fill="rgb(255,204,0)" text-rendering="geometricPrecision" shape-rendering="geometricPrecision" transform="matrix(1,0,0,1,10,15)" stroke="rgb(255,204,0)">
      <rect x="20.0003" width="70.7129" height="30" y="650" clip-path="url(#clipPath2)" stroke="none"/>
    </g>
    <g text-rendering="geometricPrecision" stroke-miterlimit="1.45" shape-rendering="geometricPrecision" transform="matrix(1,0,0,1,10,15)" stroke-linecap="butt">
      <rect fill="none" x="20.0003" width="70.7129" height="30" y="650" clip-path="url(#clipPath2)"/>
      <text x="27.0003" xml:space="preserve" y="669.1602" clip-path="url(#clipPath2)" font-family="sans-serif" stroke="none">RoundEnd</text>
    </g>
    <g fill="rgb(255,204,0)" text-rendering="geometricPrecision" shape-rendering="geometricPrecision" transform="matrix(1,0,0,1,10,15)" stroke="rgb(255,204,0)">
      <rect x="21.1805" width="50.6738" height="30" y="265" clip-path="url(#clipPath2)" stroke="none"/>
    </g>
    <g text-rendering="geometricPrecision" stroke-miterlimit="1.45" shape-rendering="geometricPrecision" transform="matrix(1,0,0,1,10,15)" stroke-linecap="butt">
      <rect fill="none" x="21.1805" width="50.6738" height="30" y="265" clip-path="url(#clipPath2)"/>
      <text x="28.1805" xml:space="preserve" y="284.1602" clip-path="url(#clipPath2)" font-family="sans-serif" stroke="none">Tsumo</text>
    </g>
    <g fill="rgb(255,204,0)" text-rendering="geometricPrecision" shape-rendering="geometricPrecision" transform="matrix(1,0,0,1,10,15)" stroke="rgb(255,204,0)">
      <rect x="163.5474" width="74.7031" height="30" y="50" clip-path="url(#clipPath2)" stroke="none"/>
    </g>
    <g text-rendering="geometricPrecision" stroke-miterlimit="1.45" shape-rendering="geometricPrecision" transform="matrix(1,0,0,1,10,15)" stroke-linecap="butt">
      <rect fill="none" x="163.5474" width="74.7031" height="30" y="50" clip-path="url(#clipPath2)"/>
      <text x="170.5474" xml:space="preserve" y="69.1602" clip-path="url(#clipPath2)" font-family="sans-serif" stroke="none">RoundStart</text>
      <path fill="none" d="M238.3151 481 L238.3151 496.5 L230.4817 496.5 L230.4817 503.9697" clip-path="url(#clipPath2)"/>
      <path d="M230.4817 511.9697 L235.4817 499.9697 L230.4817 502.9697 L225.4817 499.9697 Z" clip-path="url(#clipPath2)" stroke="none"/>
      <path fill="none" d="M269.9353 295 L269.9353 310.5 L205.1393 310.5 L205.1393 503.9508" clip-path="url(#clipPath2)"/>
      <path d="M205.1393 511.9508 L210.1393 499.9508 L205.1393 502.9508 L200.1393 499.9508 Z" clip-path="url(#clipPath2)" stroke="none"/>
      <path fill="none" d="M148.2135 295 L148.2135 481.5 L179.7968 481.5 L179.7968 503.9702" clip-path="url(#clipPath2)"/>
      <path d="M179.7968 511.9702 L184.7968 499.9702 L179.7968 502.9702 L174.7968 499.9702 Z" clip-path="url(#clipPath2)" stroke="none"/>
      <path fill="none" d="M186.1324 542 L186.1324 557.5 L129.7072 557.5 L129.7072 564.9697" clip-path="url(#clipPath2)"/>
      <path d="M129.7072 572.9697 L134.7072 560.9697 L129.7072 563.9697 L124.7072 560.9697 Z" clip-path="url(#clipPath2)" stroke="none"/>
      <path fill="none" d="M224.1461 542 L224.1462 564.9697" clip-path="url(#clipPath2)"/>
      <path d="M224.1462 572.9697 L229.1461 560.9697 L224.1462 563.9697 L219.1462 560.9697 Z" clip-path="url(#clipPath2)" stroke="none"/>
      <path fill="none" d="M87.3547 572.9586 L87.3548 233.5 L189.8991 233.5 L189.8991 210" clip-path="url(#clipPath2)"/>
      <path d="M189.8991 202 L184.8991 214 L189.8991 211 L194.8991 214 Z" clip-path="url(#clipPath2)" stroke="none"/>
      <path fill="none" d="M209.0743 141 L209.0744 163.9697" clip-path="url(#clipPath2)"/>
      <path d="M209.0744 171.9697 L214.0744 159.9697 L209.0744 162.9697 L204.0744 159.9697 Z" clip-path="url(#clipPath2)" stroke="none"/>
      <path fill="none" d="M215.4662 202 L215.4662 249.5 L269.9353 249.5 L269.9353 256.9697" clip-path="url(#clipPath2)"/>
      <path d="M269.9353 264.9697 L274.9353 252.9697 L269.9353 255.9697 L264.9353 252.9697 Z" clip-path="url(#clipPath2)" stroke="none"/>
      <path fill="none" d="M202.6826 202 L202.6826 249.5 L148.2135 249.5 L148.2135 256.9697" clip-path="url(#clipPath2)"/>
      <path d="M148.2135 264.9697 L153.2135 252.9697 L148.2135 255.9697 L143.2135 252.9697 Z" clip-path="url(#clipPath2)" stroke="none"/>
      <path fill="none" d="M228.2497 202 L228.2497 233.5 L331.7988 233.5 L331.799 333.9735" clip-path="url(#clipPath2)"/>
      <path d="M331.799 341.9735 L336.799 329.9735 L331.799 332.9735 L326.799 329.9735 Z" clip-path="url(#clipPath2)" stroke="none"/>
      <path fill="none" d="M357.8351 450.9614 L357.8351 380" clip-path="url(#clipPath2)"/>
      <path d="M357.835 372 L352.8351 384 L357.8351 381 L362.8351 384 Z" clip-path="url(#clipPath2)" stroke="none"/>
      <path fill="none" d="M326.5917 372 L326.5917 387.5 L238.3151 387.5 L238.3151 442.969" clip-path="url(#clipPath2)"/>
      <path d="M238.3151 450.969 L243.3151 438.969 L238.3151 441.969 L233.3151 438.969 Z" clip-path="url(#clipPath2)" stroke="none"/>
      <path fill="none" d="M350.0242 372 L350.0242 435.5 L333.4972 435.5 L333.4972 557.5 L242.153 557.5 L242.153 564.9697" clip-path="url(#clipPath2)"/>
      <path d="M242.153 572.9697 L247.153 560.9697 L242.153 563.9697 L237.153 560.9697 Z" clip-path="url(#clipPath2)" stroke="none"/>
      <path fill="none" d="M368.2495 341.9697 L368.2495 326.5 L406.1369 326.5 L406.1369 156.5 L230.0753 156.5 L230.0753 149" clip-path="url(#clipPath2)"/>
      <path d="M230.0753 141 L225.0753 153 L230.0753 150 L235.0753 153 Z" clip-path="url(#clipPath2)" stroke="none"/>
      <path fill="none" d="M365.6458 372 L365.6458 403.5 L375.5109 403.5 L375.5109 442.9536" clip-path="url(#clipPath2)"/>
      <path d="M375.5109 450.9536 L380.5109 438.9536 L375.5109 441.9536 L370.5109 438.9536 Z" clip-path="url(#clipPath2)" stroke="none"/>
      <path fill="none" d="M334.4026 372 L334.4026 403.5 L293.9926 403.5 L293.9926 442.9536" clip-path="url(#clipPath2)"/>
      <path d="M293.9926 450.9536 L298.9926 438.9536 L293.9926 441.9536 L288.9926 438.9536 Z" clip-path="url(#clipPath2)" stroke="none"/>
      <path fill="none" d="M309.9955 450.9692 L309.9955 419.5 L342.2134 419.5 L342.2134 380" clip-path="url(#clipPath2)"/>
      <path d="M342.2134 372 L337.2134 384 L342.2134 381 L347.2134 384 Z" clip-path="url(#clipPath2)" stroke="none"/>
      <path fill="none" d="M241.0332 202 L241.0332 217.5 L368.9679 217.5 L368.9679 256.9536" clip-path="url(#clipPath2)"/>
      <path d="M368.9679 264.9536 L373.9679 252.9536 L368.9679 255.9536 L363.9679 252.9536 Z" clip-path="url(#clipPath2)" stroke="none"/>
      <path fill="none" d="M368.9679 295 L368.9679 310.5 L350.0242 310.5 L350.0242 333.9692" clip-path="url(#clipPath2)"/>
      <path d="M350.0242 341.9692 L355.0242 329.9692 L350.0242 332.9692 L345.0242 329.9692 Z" clip-path="url(#clipPath2)" stroke="none"/>
      <path fill="none" d="M373.4567 372 L373.4567 387.5 L443.0286 387.5 L443.0286 442.969" clip-path="url(#clipPath2)"/>
      <path d="M443.0286 450.969 L448.0286 438.969 L443.0286 441.969 L438.0286 438.969 Z" clip-path="url(#clipPath2)" stroke="none"/>
      <path fill="none" d="M233.1496 603 L233.1496 618.5 L64.1959 618.5 L64.1959 641.9692" clip-path="url(#clipPath2)"/>
      <path d="M64.1959 649.9692 L69.1959 637.9692 L64.1959 640.9692 L59.1959 637.9692 Z" clip-path="url(#clipPath2)" stroke="none"/>
      <path fill="none" d="M443.0286 481 L443.0286 634.5 L81.8741 634.5 L81.8741 641.9697" clip-path="url(#clipPath2)"/>
      <path d="M81.8741 649.9697 L86.8741 637.9697 L81.8741 640.9697 L76.8741 637.9697 Z" clip-path="url(#clipPath2)" stroke="none"/>
      <path fill="none" d="M55.3567 680 L55.3567 691.9609" clip-path="url(#clipPath2)"/>
      <path d="M55.3567 699.9609 L60.3567 687.9609 L55.3567 690.9609 L50.3567 687.9609 Z" clip-path="url(#clipPath2)" stroke="none"/>
      <path fill="none" d="M177.1156 202 L177.1156 217.5 L46.5175 217.5 L46.5175 256.9536" clip-path="url(#clipPath2)"/>
      <path d="M46.5175 264.9536 L51.5175 252.9536 L46.5175 255.9536 L41.5175 252.9536 Z" clip-path="url(#clipPath2)" stroke="none"/>
      <path fill="none" d="M46.5175 295 L46.5176 641.9567" clip-path="url(#clipPath2)"/>
      <path d="M46.5176 649.9567 L51.5176 637.9567 L46.5176 640.9567 L41.5176 637.9567 Z" clip-path="url(#clipPath2)" stroke="none"/>
      <path fill="none" d="M200.899 30 L200.899 41.9609" clip-path="url(#clipPath2)"/>
      <path d="M200.899 49.9609 L205.899 37.9609 L200.899 40.9609 L195.899 37.9609 Z" clip-path="url(#clipPath2)" stroke="none"/>
      <path fill="none" d="M28.8394 649.9546 L28.8394 603.5 L5.6802 603.5 L5.6802 95.5 L182.2232 95.5 L182.2232 88" clip-path="url(#clipPath2)"/>
      <path d="M182.2232 80 L177.2232 92 L182.2232 89 L187.2232 92 Z" clip-path="url(#clipPath2)" stroke="none"/>
      <path fill="none" d="M219.5748 80 L219.5748 102.9697" clip-path="url(#clipPath2)"/>
      <path d="M219.5748 110.9697 L224.5748 98.9697 L219.5748 101.9697 L214.5748 98.9697 Z" clip-path="url(#clipPath2)" stroke="none"/>
    </g>
  </g>
</svg>
